HIERARCHY
ROOT Hips
{
	OFFSET 0.000000 0.000000 0.000000
	CHANNELS 6 Xposition Yposition Zposition Xrotation Yrotation Zrotation
	JOINT LeftUpLeg_virtual
	{
		OFFSET 0.000000 0.000000 0.000000
		CHANNELS 3 Xrotation Yrotation Zrotation
		JOINT LeftUpLeg
		{
			OFFSET 10.205400 -3.823500 0.155100
			CHANNELS 3 Xrotation Yrotation Zrotation
			JOINT LeftLeg
			{
				OFFSET 0.708757 -12.982077 0.567790
				CHANNELS 3 Xrotation Yrotation Zrotation
				JOINT LeftFoot
				{
					OFFSET -0.708756 -10.717838 -2.184338
					CHANNELS 3 Xrotation Yrotation Zrotation
					JOINT LeftToeBase
					{
						OFFSET 0.108149 -7.191104 7.560241
						CHANNELS 3 Xrotation Yrotation Zrotation
						JOINT LeftToe_End
						{
							OFFSET 0.070230 0.081724 4.490308
							CHANNELS 3 Xrotation Yrotation Zrotation
							End Site
							{
								OFFSET 0 0 0
							}
						}
					}
				}
			}
		}
	}
	JOINT RightUpLeg_virtual
	{
		OFFSET 0.000000 0.000000 0.000000
		CHANNELS 3 Xrotation Yrotation Zrotation
		JOINT RightUpLeg
		{
			OFFSET -10.205400 -3.823500 0.005500
			CHANNELS 3 Xrotation Yrotation Zrotation
			JOINT RightLeg
			{
				OFFSET -0.708756 -12.982134 0.610632
				CHANNELS 3 Xrotation Yrotation Zrotation
				JOINT RightFoot
				{
					OFFSET 0.708754 -10.717769 -1.945823
					CHANNELS 3 Xrotation Yrotation Zrotation
					JOINT RightToeBase
					{
						OFFSET -0.108140 -7.191069 7.372968
						CHANNELS 3 Xrotation Yrotation Zrotation
						JOINT RightToe_End
						{
							OFFSET -0.070227 0.081735 4.479403
							CHANNELS 3 Xrotation Yrotation Zrotation
							End Site
							{
								OFFSET 0 0 0
							}
						}
					}
				}
			}
		}
	}
	JOINT Spine_virtual
	{
		OFFSET 0.000000 0.000000 0.000000
		CHANNELS 3 Xrotation Yrotation Zrotation
		JOINT Spine
		{
			OFFSET 0.000000 6.876099 0.125700
			CHANNELS 3 Xrotation Yrotation Zrotation
			JOINT Spine1
			{
				OFFSET 0.000000 5.730043 0.104720
				CHANNELS 3 Xrotation Yrotation Zrotation
				JOINT Spine1_split
				{
					OFFSET 0.000000 5.730043 0.104720
					CHANNELS 3 Xrotation Yrotation Zrotation
					JOINT Spine2
					{
						OFFSET 0.000000 5.730043 0.104720
						CHANNELS 3 Xrotation Yrotation Zrotation
						JOINT Neck_virtual
						{
							OFFSET 0.000000 0.000000 0.000000
							CHANNELS 3 Xrotation Yrotation Zrotation
							JOINT Neck
							{
								OFFSET 0.000000 10.314075 0.188496
								CHANNELS 3 Xrotation Yrotation Zrotation
								JOINT Head
								{
									OFFSET 0.000000 7.643700 -2.377400
									CHANNELS 3 Xrotation Yrotation Zrotation
									JOINT HeadTop_End
									{
										OFFSET 0.000000 43.788605 -13.619600
										CHANNELS 3 Xrotation Yrotation Zrotation
										End Site
										{
											OFFSET 0 0 0
										}
									}
								}
							}
						}
						JOINT LeftShoulder_virtual
						{
							OFFSET 0.000000 0.000000 0.000000
							CHANNELS 3 Xrotation Yrotation Zrotation
							JOINT LeftShoulder
							{
								OFFSET 2.196100 4.412489 0.087492
								CHANNELS 3 Xrotation Yrotation Zrotation
								JOINT LeftShoulder_split
								{
									OFFSET 2.196100 4.412489 0.087492
									CHANNELS 3 Xrotation Yrotation Zrotation
									JOINT LeftArm
									{
										OFFSET 8.771219 -2.981674 -0.026999
										CHANNELS 3 Xrotation Yrotation Zrotation
										JOINT LeftForeArm
										{
											OFFSET 8.512804 0.000000 -0.000000
											CHANNELS 3 Xrotation Yrotation Zrotation
											JOINT LeftHand
											{
												OFFSET 18.484802 0.000000 -0.000000
												CHANNELS 3 Xrotation Yrotation Zrotation
												End Site
												{
													OFFSET 0 0 0
												}
											}
										}
									}
								}
							}
						}
						JOINT RightShoulder_virtual
						{
							OFFSET 0.000000 0.000000 0.000000
							CHANNELS 3 Xrotation Yrotation Zrotation
							JOINT RightShoulder
							{
								OFFSET -2.196100 4.412496 0.070690
								CHANNELS 3 Xrotation Yrotation Zrotation
								JOINT RightShoulder_split
								{
									OFFSET -2.196100 4.412496 0.070690
									CHANNELS 3 Xrotation Yrotation Zrotation
									JOINT RightArm
									{
										OFFSET -8.771282 -2.981682 -0.094208
										CHANNELS 3 Xrotation Yrotation Zrotation
										JOINT RightForeArm
										{
											OFFSET -8.494598 0.000000 0.000000
											CHANNELS 3 Xrotation Yrotation Zrotation
											JOINT RightHand
											{
												OFFSET -18.483803 0.000000 0.000001
												CHANNELS 3 Xrotation Yrotation Zrotation
												End Site
												{
													OFFSET 0 0 0
												}
											}
										}
									}
								}
							}
						}
					}
				}
			}
		}
	}
}
MOTION
Frames: 5
Frame Time: 0.03333333
1.024851 23.790915 -20.193598 0.000000 0.000000 0.000000 32.500837 -78.390621 29.422464 -49.208716 -10.914300 32.244025 82.748828 12.096584 1.466968 -23.988709 9.454415 -41.880507 -5.607280 -3.405942 5.878279 0.000000 0.000000 0.000000 33.919491 -77.658008 31.494624 -49.112639 1.383703 -12.544654 90.387165 19.188291 -7.579225 -44.814473 -2.988488 1.492938 -1.018197 1.821659 1.404621 0.000000 0.000000 0.000000 47.895148 -82.906598 46.015708 5.035998 10.839744 -4.751331 10.014266 18.870030 -6.234694 0.635319 -5.648422 1.931781 0.000000 0.000000 0.000000 12.430441 18.255386 -7.780867 -1.060549 1.876572 3.213524 4.550754 2.479767 -6.373269 0.000000 0.000000 0.000000 10.177451 18.539584 -7.044188 4.404050 -4.215784 0.110520 2.288962 3.196110 0.296714 -75.598180 -30.488226 -61.536241 55.506840 -75.768197 54.492646 0.000000 0.000000 0.000000 9.270874 18.625694 -6.586666 5.415505 7.998406 -2.377051 -2.140306 6.669862 -3.321086 -48.214360 -4.598053 29.364322 -15.521598 43.868983 1.819986 0.000000 0.000000 0.000000 
1.360852 23.474854 -20.481852 0.000000 0.000000 0.000000 41.812355 -74.560251 38.170092 -55.426097 -12.088044 31.883023 84.214074 11.112464 0.984060 -24.170270 7.719524 -40.685746 -5.817483 -3.763376 6.499723 0.000000 0.000000 0.000000 39.979030 -74.316891 37.678363 -53.656074 1.226470 -13.079492 90.680720 18.074320 -5.533961 -48.175800 -3.143890 0.448887 2.555784 1.194460 0.916998 0.000000 0.000000 0.000000 51.491133 -78.783541 49.134065 5.543158 10.649978 -4.760411 10.724893 18.170161 -6.449779 0.805942 -6.235513 1.935890 0.000000 0.000000 0.000000 12.347736 17.714767 -7.584523 -1.184998 4.173798 3.736047 1.994435 5.103154 -10.132264 0.000000 0.000000 0.000000 10.521007 17.911440 -7.384598 3.611044 -4.557746 -2.345238 0.479757 2.714330 -0.115607 -61.326069 -21.573846 -56.184740 51.504875 -71.714486 49.140551 0.000000 0.000000 0.000000 9.678692 18.274480 -6.521059 4.770981 8.098453 0.574164 -1.604292 6.736853 -4.092306 -42.418975 -10.707641 30.024002 -15.092864 43.027309 5.162508 0.000000 0.000000 0.000000 
1.612549 23.422306 -20.664915 0.000000 0.000000 0.000000 47.246573 -71.029316 43.557773 -60.705396 -12.338680 31.014250 84.303700 9.773904 0.619386 -23.738181 5.786622 -38.381886 -5.901899 -4.175285 6.655586 0.000000 0.000000 0.000000 42.608725 -71.072216 40.870766 -57.400835 1.698603 -14.904887 89.801408 17.606298 -4.171811 -48.542301 -3.412303 2.164171 3.331389 0.699410 0.025286 0.000000 0.000000 0.000000 51.638638 -74.785312 49.064336 5.886523 10.407837 -4.406097 11.326445 17.455638 -6.455339 1.154469 -6.232914 1.689525 0.000000 0.000000 0.000000 12.107468 17.092583 -7.178858 -1.441886 6.262620 4.067141 0.364294 7.731839 -13.693063 0.000000 0.000000 0.000000 10.752530 17.244851 -7.475551 3.080385 -4.188646 -4.064812 -0.551148 2.169746 -0.493223 -47.524559 -12.057045 -52.963981 40.707381 -67.877348 38.114836 0.000000 0.000000 0.000000 10.010864 17.796142 -6.313103 4.295290 8.251391 3.195665 -0.817119 7.197300 -4.310997 -35.082044 -17.918192 32.416617 -14.645205 43.219798 7.638720 0.000000 0.000000 0.000000 
1.789436 23.478588 -20.909475 0.000000 0.000000 0.000000 48.651762 -67.934031 45.498260 -65.077277 -11.940097 29.612948 83.838735 8.154848 0.432251 -22.379506 4.144089 -36.018948 -5.405767 -4.459778 6.339538 0.000000 0.000000 0.000000 43.313631 -68.349689 42.400431 -60.009052 3.050534 -17.287224 88.382750 17.599897 -3.869775 -47.257211 -3.745784 6.001802 2.179293 0.229379 -0.788365 0.000000 0.000000 0.000000 50.196614 -71.428295 47.744252 6.005139 10.102107 -3.798602 11.798448 16.740222 -6.321226 1.391199 -5.694926 1.581477 0.000000 0.000000 0.000000 11.761901 16.386172 -6.683198 -1.835672 8.020724 4.175421 -0.379129 9.930724 -16.731790 0.000000 0.000000 0.000000 10.921191 16.517421 -7.341359 2.746599 -3.547977 -4.972638 -0.524210 1.429149 -0.772689 -34.732680 -3.733461 -53.108484 28.614109 -64.211606 26.437135 0.000000 0.000000 0.000000 10.354398 17.221164 -6.024828 3.910587 8.741851 5.698988 -0.153180 7.460936 -4.150546 -25.848943 -24.771464 37.020998 -14.062164 43.130807 9.081793 0.000000 0.000000 0.000000 
1.859558 23.569431 -21.008570 0.000000 0.000000 0.000000 46.433269 -65.368291 44.339583 -68.183258 -11.071261 27.783768 82.733105 6.535433 0.359374 -20.086132 3.285174 -34.447902 -4.363253 -4.476748 5.564078 0.000000 0.000000 0.000000 42.780579 -66.072696 42.661051 -60.612929 4.934475 -19.577540 86.518273 17.205547 -4.068691 -46.036209 -3.988586 9.551267 1.459469 -0.253997 -1.090474 0.000000 0.000000 0.000000 47.019367 -68.805775 45.124406 5.952155 9.680187 -3.193380 12.133140 15.986853 -6.147396 1.456049 -4.551199 1.487701 0.000000 0.000000 0.000000 11.448035 15.598926 -6.198090 -2.367217 9.398937 4.083055 -0.447677 11.514989 -19.022840 0.000000 0.000000 0.000000 11.083461 15.720473 -7.100658 2.522491 -2.985118 -5.167520 0.148783 0.888698 -0.929515 -23.793548 2.393646 -56.398576 17.974092 -60.310079 16.342537 0.000000 0.000000 0.000000 10.750561 16.546487 -5.710551 3.512313 9.562349 8.095694 0.334807 7.617149 -3.740334 -15.998888 -29.863568 42.990689 -13.370158 41.928820 9.539303 0.000000 0.000000 0.000000 
